<?xml version="1.0" encoding="UTF-8"?>
<svg xmlns="http://www.w3.org/2000/svg" version="1.1"
     viewBox="254 152 71 72">
  <path transform="matrix(1,0,0,-1,-29.8111,717.6191)" d="M310.6942 552.0132C307.7787 548.8529 306.9757 545.3235 308.2915 541.4284 308.3366 541.2889 308.2603 541.139 308.1206 541.1044 302.1579 539.4614 295.8534 536.7566 292.1131 531.9391 288.7634 527.6203 287.5277 520.3562 292.8424 516.9013 296.9464 514.2413 302.8374 515.1679 306.7381 518.0621 306.8515 518.1494 307.0171 518.057 307.0069 517.9122 306.6851 512.3503 308.5872 506.9772 312.8905 503.5901 314.3364 502.4554 316.2172 501.1095 317.2093 499.4974 317.9103 498.3732 319.0666 497.4199 320.4278 498.1493 321.5631 498.7681 322.4112 500.6563 323.3064 501.3573 325.3742 502.969 326.6748 504.0465 327.2071 504.5831 330.789 508.189 332.2426 512.8214 331.9843 517.8336 331.9685 518.0839 332.0663 518.1361 332.2687 517.9941 335.632 515.679 339.1481 514.8811 342.8303 515.5917 347.023 516.4004 349.7933 519.5455 349.7091 523.9069 349.5141 533.778 339.5013 538.7102 330.9287 541.0783 330.736 541.1285 330.6569 541.2546 330.6943 541.4494 330.8122 542.0662 331.0631 542.632 331.1549 543.259 331.6581 546.5775 330.6994 549.4793 328.2814 551.9713 328.1366 552.1215 328.1051 552.3506 328.2075 552.5351 329.8192 555.3524 332.2032 556.9016 335.3556 557.1831 336.4486 557.2809 337.428 558.3521 336.8863 559.5191 336.5175 560.317 335.8902 560.6776 335.0132 560.6014 330.7518 560.2275 327.5101 558.1706 325.2869 554.4312 325.1974 554.2804 325.0684 554.2387 324.9077 554.3073 321.1682 555.9191 317.5622 555.9191 314.0864 554.2968 313.9356 554.2251 313.7573 554.2804 313.6728 554.4252 311.5599 558.0947 308.3477 560.1566 304.0333 560.6067 303.1614 560.694 302.5057 560.3409 302.061 559.5429 301.987 559.4136 301.9504 559.2688 301.9504 559.1137 301.9445 557.9334 302.5244 557.2862 303.702 557.1675 306.8569 556.8463 309.2085 555.3077 310.7568 552.5456 310.8546 552.3738 310.8285 552.1581 310.6942 552.0132ZM299.8743 534.3885C304.3536 536.8516 309.6899 538.5946 315.8685 539.627 316.4896 539.7301 317.0302 539.5853 317.4803 539.1978 318.4807 538.3369 317.6617 536.0428 317.1481 535.0521 314.7911 530.5093 311.3019 526.6616 307.5406 522.9162 305.2151 520.602 302.7898 518.834 299.3868 518.5287 292.7551 517.9442 290.7505 523.5171 293.745 528.6498 295.1067 530.9867 297.1531 532.8984 299.8743 534.3885ZM310.7971 521.5799C310.8597 521.8801 311.0366 521.983 311.3317 521.8957 316.7963 520.1816 322.2244 520.187 327.6235 521.9011 327.8551 521.977 328.1 521.8322 328.155 521.5955L328.6689 519.2858C328.7375 518.9907 328.627 518.7878 328.3529 518.6803 322.6456 516.3571 316.6038 516.4101 310.5969 518.6324 310.3251 518.7302 310.2231 518.9221 310.2803 519.2065ZM323.1564 532.6855C322.3134 533.9659 319.7324 538.3981 321.7581 539.4098 322.2187 539.636 322.7063 539.7049 323.2199 539.6182 330.2493 538.3981 340.0381 535.7673 344.4474 529.8576 346.5094 527.097 348.0471 521.8645 344.3817 519.539 340.8415 517.2976 336.056 518.8093 333.0459 521.4716 329.0848 524.9721 325.7901 528.7116 323.1564 532.6855ZM319.6981 532.2983C321.1943 529.6516 323.0323 527.1678 325.2183 524.8423 325.3527 524.6974 325.2764 524.4661 325.0845 524.4236 321.3496 523.5993 317.605 523.5993 313.8491 524.4236 313.6513 524.4661 313.5804 524.7079 313.7199 524.8528 315.8266 527.044 317.6833 529.5249 319.2772 532.2983 319.4169 532.5409 319.5564 532.5409 319.6981 532.2983ZM310.4813 515.3117C316.5888 513.2761 322.5934 513.2761 328.4875 515.3221 328.7832 515.4253 328.9011 515.3221 328.8404 515.0169L328.2559 512.2196C328.1769 511.8619 327.9634 511.6195 327.6184 511.4985 321.967 509.6044 316.5284 509.6231 311.2897 511.5611 310.9898 511.6694 310.7656 511.9299 310.7052 512.2412L310.1363 515.0013C310.0677 515.3066 310.1865 515.4097 310.4813 515.3117ZM313.7766 507.5558C317.6056 506.7899 321.2005 506.766 324.5666 507.4744 325.7626 507.7276 325.8731 507.4798 324.904 506.74 322.8786 505.1857 321.122 503.6505 319.631 502.1388 319.4864 501.9888 319.3489 501.9993 319.2307 502.1649 317.7952 504.0822 315.3093 505.6628 313.5997 507.2162 313.2445 507.543 313.2995 507.6558 313.7766 507.5558ZM344.5421 522.3728H334.7734C337.2593 520.4526 340.8599 519.4307 343.4199 521.0527 343.9494 521.3903 344.3182 521.8248 344.5421 522.3728"
        fill="oklch(1 0 0)"
        fill-rule="evenodd"/>
</svg>
