<?xml version="1.0" encoding="UTF-8"?>
<svg xmlns="http://www.w3.org/2000/svg" xmlns:xlink="http://www.w3.org/1999/xlink" 
     version="1.1" width="464.4053" height="79.4823" 
     viewBox="0 0 464.4053 79.4823">
  <path transform="matrix(1,0,0,-1,5.0000,75.4823)" d="M21.1873 55.0108C21.1873 51.8128 21.1073 49.7608 20.9472 48.8546 20.6008 46.8026 19.6948 45.0437 18.229 43.5779 16.3636 41.7124 13.805 40.7795 10.5537 40.7795H0V69.2425H10.5537C13.805 69.2425 16.3636 68.3096 18.229 66.4441 19.6948 64.9783 20.6008 63.2194 20.9472 61.1671 21.1073 60.2612 21.1873 58.2089 21.1873 55.0108ZM14.1914 55.0108C14.1914 58.5289 13.9382 60.6609 13.432 61.4069 12.7123 62.473 11.5929 63.006 10.0738 63.006H6.9956V47.0157H10.0738C11.5929 47.0157 12.7123 47.5486 13.432 48.6147 13.7251 49.0411 13.9249 49.6009 14.0315 50.2937 14.1381 51.1466 14.1914 52.719 14.1914 55.0108ZM43.9736 49.4144H31.1012C31.1012 48.4815 31.4342 47.7088 32.1007 47.0957 32.7934 46.4029 33.7263 46.0562 34.899 46.0562 36.6579 46.0562 38.137 46.656 39.3364 47.8553L43.2539 43.9376C42.0812 42.7649 40.9088 41.9255 39.7361 41.419 38.4035 40.8328 36.7911 40.5397 34.899 40.5397 28.0763 40.5397 24.6651 44.204 24.6651 51.533 24.6651 54.9709 25.5713 57.6893 27.3835 59.688 29.1158 61.5804 31.4209 62.5263 34.2992 62.5263 37.3107 62.5263 39.7094 61.5268 41.495 59.5281 43.1473 57.6626 43.9736 55.264 43.9736 52.3327ZM37.4973 53.7715C37.4973 54.7843 37.211 55.5973 36.6378 56.2102 36.0649 56.823 35.2854 57.1297 34.2992 57.1297 32.9134 57.1297 31.9674 56.5699 31.4609 55.4508 31.2211 54.9176 31.1012 54.358 31.1012 53.7715ZM57.9251 40.7795H54.4473C52.2351 40.7795 50.5295 41.4723 49.3302 42.8581 48.291 44.0308 47.7711 45.4567 47.7711 47.1356V69.2425H54.3274V47.6152C54.3274 46.7359 54.7671 46.2963 55.6466 46.2963H57.9251ZM90.0258 49.5077C90.0258 46.7093 88.9466 44.4906 86.7878 42.8649 84.7624 41.3124 82.1772 40.5397 79.0325 40.5397 74.262 40.5397 70.6643 41.7923 68.239 44.2973L72.7163 48.7746C74.0489 47.442 76.1675 46.7759 79.0724 46.7759 81.7909 46.7759 83.1501 47.6286 83.1501 49.3345 83.1501 50.72 82.3371 51.533 80.7114 51.7728L77.2736 52.2524C72.1568 52.9722 69.5982 55.7172 69.5982 60.4877 69.5982 63.1261 70.5376 65.2847 72.4164 66.9637 74.2955 68.6426 76.8206 69.4823 79.992 69.4823 84.1226 69.4823 87.321 68.3495 89.5861 66.0841L85.1888 61.687C84.0694 62.8328 82.2705 63.4059 79.7922 63.4059 78.6728 63.4059 77.7932 63.1261 77.1537 62.5663 76.6208 62.06 76.354 61.4602 76.354 60.7606 76.354 60.2544 76.5541 59.8014 76.9538 59.4017 77.3535 59.0017 77.9933 58.7353 78.8726 58.602L82.3105 58.1224C84.9223 57.7494 86.8612 56.8763 88.1271 55.5174 89.3928 54.1582 90.0258 52.1527 90.0258 49.5077ZM112.4121 40.7795H106.016V42.5384C104.6835 41.2058 103.0178 40.5397 101.0191 40.5397 99.0204 40.5397 97.4081 41.1525 96.1821 42.3785 94.7429 43.8177 94.0235 45.8697 94.0235 48.5348V62.2865H100.5795V49.4144C100.5795 48.3216 100.9125 47.522 101.5787 47.0157 102.0319 46.6427 102.5782 46.4562 103.2177 46.4562 103.8574 46.4562 104.4037 46.6427 104.8569 47.0157 105.5231 47.522 105.8562 48.3216 105.8562 49.4144V62.2865H112.4121ZM133.8392 60.5276 128.8823 55.4907C128.1362 56.2368 127.3499 56.6099 126.5238 56.6099 125.9107 56.6099 125.3645 56.4233 124.8849 56.0503 124.2184 55.5174 123.8854 54.7177 123.8854 53.6516V40.7795H117.3294V62.2865H123.6855V60.5276C125.0246 61.8602 126.7237 62.5263 128.7825 62.5263 130.8144 62.5263 132.5001 61.8602 133.8392 60.5276ZM166.7795 55.0108C166.7795 51.8128 166.6996 49.7608 166.5394 48.8546 166.193 46.8026 165.2871 45.0437 163.8213 43.5779 161.9558 41.7124 159.3972 40.7795 156.1459 40.7795H145.5922V69.2425H156.1459C159.3972 69.2425 161.9558 68.3096 163.8213 66.4441 165.2871 64.9783 166.193 63.2194 166.5394 61.1671 166.6996 60.2612 166.7795 58.2089 166.7795 55.0108ZM159.7836 55.0108C159.7836 58.5289 159.5305 60.6609 159.0242 61.4069 158.3045 62.473 157.1851 63.006 155.666 63.006H152.5878V47.0157H155.666C157.1851 47.0157 158.3045 47.5486 159.0242 48.6147 159.3173 49.0411 159.5171 49.6009 159.6237 50.2937 159.7303 51.1466 159.7836 52.719 159.7836 55.0108ZM178.6122 40.7795H171.6165V69.2425H178.6122ZM203.5171 49.5077C203.5171 46.7093 202.4379 44.4906 200.2791 42.8649 198.2537 41.3124 195.6685 40.5397 192.5237 40.5397 187.7533 40.5397 184.1556 41.7923 181.7303 44.2973L186.2076 48.7746C187.5402 47.442 189.6588 46.7759 192.5637 46.7759 195.2821 46.7759 196.6414 47.6286 196.6414 49.3345 196.6414 50.72 195.8284 51.533 194.2027 51.7728L190.7649 52.2524C185.648 52.9722 183.0895 55.7172 183.0895 60.4877 183.0895 63.1261 184.0289 65.2847 185.9077 66.9637 187.7868 68.6426 190.3119 69.4823 193.4833 69.4823 197.6139 69.4823 200.8123 68.3495 203.0774 66.0841L198.68 61.687C197.5606 62.8328 195.7618 63.4059 193.2834 63.4059 192.164 63.4059 191.2844 63.1261 190.6449 62.5663 190.112 62.06 189.8453 61.4602 189.8453 60.7606 189.8453 60.2544 190.0454 59.8014 190.4451 59.4017 190.8448 59.0017 191.4846 58.7353 192.3639 58.602L195.8017 58.1224C198.4136 57.7494 200.3525 56.8763 201.6184 55.5174 202.8841 54.1582 203.5171 52.1527 203.5171 49.5077ZM227.3825 63.006H220.3869V40.7795H213.391V63.006H206.3954V69.2425H227.3825ZM253.9667 40.7795H245.8514L240.8145 51.3731H238.4558V40.7795H231.4602V69.2425H242.7333C245.7448 69.2425 248.1568 68.2963 249.969 66.4041 251.6213 64.6985 252.4476 62.5929 252.4476 60.088 252.4476 56.6765 250.9019 54.1981 247.8104 52.6524ZM245.4517 60.088C245.4517 60.8607 245.1719 61.5336 244.6121 62.1065 244.0525 62.6797 243.3197 62.966 242.4135 62.966H238.4558V57.2097H242.4135C243.3197 57.2097 244.0525 57.496 244.6121 58.0691 245.1719 58.642 245.4517 59.315 245.4517 60.088ZM264.5201 40.7795H257.5244V69.2425H264.5201ZM291.5439 49.1743C291.5439 46.5361 290.7176 44.4773 289.0653 42.9982 287.4129 41.5191 285.281 40.7795 282.6692 40.7795H270.2767V69.2425H282.0696C284.9743 69.2425 287.2131 68.4961 288.7855 67.0037 290.3579 65.5112 291.1439 63.5125 291.1439 61.0072 291.1439 58.6621 290.1047 56.7831 288.0258 55.3706 290.3712 53.905 291.5439 51.8394 291.5439 49.1743ZM284.1483 60.6475C284.1483 62.1933 283.3087 62.966 281.6297 62.966H277.2723V58.3288H281.6297C283.3087 58.3288 284.1483 59.1018 284.1483 60.6475ZM284.548 49.5743C284.548 51.2266 283.6953 52.0526 281.9894 52.0526H277.2723V47.0557H281.9894C283.6953 47.0557 284.548 47.8953 284.548 49.5743ZM317.4883 50.7736C317.4883 47.7354 316.442 45.2701 314.35 43.378 312.258 41.4856 309.693 40.5397 306.6548 40.5397 303.6166 40.5397 301.0847 41.4723 299.0594 43.338 296.9538 45.2568 295.9013 47.7354 295.9013 50.7736V69.2425H302.8969V50.9335C302.8969 49.6276 303.23 48.6082 303.8964 47.8752 304.5626 47.1424 305.4821 46.7759 306.6548 46.7759 307.8272 46.7759 308.7601 47.1424 309.4529 47.8752 310.146 48.6082 310.4923 49.6276 310.4923 50.9335V69.2425H317.4883ZM340.5141 43.6978C338.4088 41.5925 335.7836 40.5397 332.6389 40.5397 329.4941 40.5397 326.8559 41.6058 324.7237 43.7377 323.3911 45.0703 322.5385 46.7892 322.1651 48.8945 321.952 50.0672 321.8454 52.1059 321.8454 55.0108 321.8454 57.9158 321.952 59.9545 322.1651 61.1271 322.5385 63.2327 323.3911 64.9517 324.7237 66.2842 326.8559 68.4162 329.4941 69.4823 332.6389 69.4823 335.7836 69.4823 338.4088 68.4295 340.5141 66.3242L335.8769 61.687C334.8377 62.7262 333.7583 63.246 332.6389 63.246 331.4398 63.246 330.5336 62.8461 329.9207 62.0467 329.201 61.1138 328.8413 58.7687 328.8413 55.0108 328.8413 51.2532 329.201 48.9078 329.9207 47.9752 330.5336 47.1756 331.4398 46.7759 332.6389 46.7759 333.7583 46.7759 334.8377 47.2955 335.8769 48.335ZM351.6273 40.7795H344.6317V69.2425H351.6273ZM378.1312 55.0108C378.1312 52.1059 378.0247 50.0672 377.8115 48.8945 377.4385 46.7892 376.5855 45.0703 375.2529 43.7377 373.121 41.6058 370.4692 40.5397 367.2978 40.5397 364.1264 40.5397 361.4749 41.6058 359.3426 43.7377 358.0101 45.0703 357.1574 46.7892 356.7841 48.8945 356.5709 50.0672 356.4643 52.1059 356.4643 55.0108 356.4643 57.9158 356.5709 59.9545 356.7841 61.1271 357.1574 63.2327 358.0101 64.9517 359.3426 66.2842 361.4749 68.4162 364.1264 69.4823 367.2978 69.4823 370.4692 69.4823 373.121 68.4162 375.2529 66.2842 376.5855 64.9517 377.4385 63.2327 377.8115 61.1271 378.0247 59.9545 378.1312 57.9158 378.1312 55.0108ZM371.1356 55.0108C371.1356 58.7687 370.7892 61.1005 370.0962 62.0067 369.4567 62.8328 368.5238 63.246 367.2978 63.246 366.0721 63.246 365.1392 62.8328 364.4997 62.0067 363.8066 61.1005 363.4603 58.7687 363.4603 55.0108 363.4603 51.2799 363.7933 48.9745 364.4595 48.0951 365.1259 47.2156 366.0721 46.7759 367.2978 46.7759 368.5238 46.7759 369.47 47.2156 370.1361 48.0951 370.8026 48.9745 371.1356 51.2799 371.1356 55.0108ZM405.195 40.7795H399.0787L389.9642 55.0908V40.7795H382.9686V69.2425H389.0849L398.1994 54.9309V69.2425H405.195ZM430.2998 40.7795H410.9516V69.2425H430.2998V63.006H417.9472V58.2489H428.5009V52.0126H417.9472V47.0157H430.2998ZM454.4053 49.5077C454.4053 46.7093 453.3262 44.4906 451.1673 42.8649 449.142 41.3124 446.5568 40.5397 443.412 40.5397 438.6416 40.5397 435.0438 41.7923 432.6185 44.2973L437.0958 48.7746C438.4284 47.442 440.547 46.7759 443.452 46.7759 446.1704 46.7759 447.5296 47.6286 447.5296 49.3345 447.5296 50.72 446.7166 51.533 445.091 51.7728L441.6531 52.2524C436.5363 52.9722 433.9777 55.7172 433.9777 60.4877 433.9777 63.1261 434.9171 65.2847 436.7959 66.9637 438.675 68.6426 441.2001 69.4823 444.3715 69.4823 448.5022 69.4823 451.7005 68.3495 453.9657 66.0841L449.5683 61.687C448.4489 62.8328 446.65 63.4059 444.1717 63.4059 443.0523 63.4059 442.1727 63.1261 441.5332 62.5663 441.0003 62.06 440.7335 61.4602 440.7335 60.7606 440.7335 60.2544 440.9337 59.8014 441.3334 59.4017 441.733 59.0017 442.3728 58.7353 443.2521 58.602L446.69 58.1224C449.3018 57.7494 451.2407 56.8763 452.5067 55.5174 453.7723 54.1582 454.4053 52.1527 454.4053 49.5077ZM54.9266 28.7028 46.3317 11.8329V.2398H39.3361V11.8329L30.7412 28.7028H38.3766L42.8539 18.4689 47.2912 28.7028ZM85.9878 22.4663H78.9922V.2398H71.9963V22.4663H65.0007V28.7028H85.9878ZM112.572 .2398H104.4567L99.4198 10.8334H97.0611V.2398H90.0655V28.7028H101.3386C104.3501 28.7028 106.7621 27.7566 108.5743 25.8644 110.2266 24.1588 111.0529 22.0533 111.0529 19.5483 111.0529 16.1368 109.5072 13.6585 106.4157 12.1127ZM104.057 19.5483C104.057 20.321 103.7772 20.994 103.2174 21.5668 102.6578 22.14 101.9251 22.4263 101.0188 22.4263H97.0611V16.67H101.0188C101.9251 16.67 102.6578 16.9563 103.2174 17.5294 103.7772 18.1023 104.057 18.7753 104.057 19.5483ZM139.3557 .2398H132.0401L130.7208 4.4773H121.9663L120.5671 .2398H113.2515L123.6053 28.7028H129.0019ZM128.882 10.3139 126.4836 17.909 123.925 10.3139ZM164.4605 .2398H158.3442L149.2296 14.5511V.2398H142.234V28.7028H148.3503L157.4649 14.3912V28.7028H164.4605ZM189.3654 8.968C189.3654 6.1696 188.2862 3.9509 186.1274 2.3253 184.102 .7727 181.5168 0 178.3721 0 173.6016 0 170.0039 1.2526 167.5786 3.7576L172.0559 8.2349C173.3885 6.9024 175.5071 6.2362 178.412 6.2362 181.1305 6.2362 182.4897 7.0889 182.4897 8.7948 182.4897 10.1803 181.6767 10.9933 180.051 11.2331L176.6132 11.7128C171.4963 12.4325 168.9378 15.1775 168.9378 19.948 168.9378 22.5865 169.8772 24.745 171.756 26.424 173.6351 28.103 176.1602 28.9426 179.3316 28.9426 183.4622 28.9426 186.6606 27.8099 188.9257 25.5444L184.5283 21.1473C183.4089 22.2931 181.6101 22.8662 179.1317 22.8662 178.0123 22.8662 177.1328 22.5865 176.4933 22.0266 175.9603 21.5203 175.6936 20.9205 175.6936 20.2209 175.6936 19.7147 175.8937 19.2617 176.2934 18.862 176.6931 18.462 177.3329 18.1956 178.2122 18.0624L181.65 17.5827C184.2619 17.2097 186.2008 16.3366 187.4667 14.9777 188.7324 13.6185 189.3654 11.613 189.3654 8.968ZM214.9101 19.5483C214.9101 17.043 214.0838 14.9377 212.4315 13.2318 210.6193 11.3397 208.2073 10.3938 205.1957 10.3938H200.9183V.2398H193.9226V28.7028H205.1957C208.2073 28.7028 210.6193 27.7566 212.4315 25.8644 214.0838 24.1588 214.9101 22.0533 214.9101 19.5483ZM207.9142 19.5483C207.9142 20.321 207.6344 20.994 207.0746 21.5668 206.515 22.14 205.7822 22.4263 204.876 22.4263H200.9183V16.67H204.876C205.7822 16.67 206.515 16.9563 207.0746 17.5294 207.6344 18.1023 207.9142 18.7753 207.9142 19.5483ZM239.7348 14.4711C239.7348 11.5662 239.6282 9.5275 239.415 8.3548 239.042 6.2495 238.189 4.5306 236.8565 3.198 234.7245 1.0661 232.0727 0 228.9013 0 225.7299 0 223.0784 1.0661 220.9462 3.198 219.6136 4.5306 218.7609 6.2495 218.3876 8.3548 218.1745 9.5275 218.0679 11.5662 218.0679 14.4711 218.0679 17.3761 218.1745 19.4148 218.3876 20.5875 218.7609 22.693 219.6136 24.412 220.9462 25.7445 223.0784 27.8765 225.7299 28.9426 228.9013 28.9426 232.0727 28.9426 234.7245 27.8765 236.8565 25.7445 238.189 24.412 239.042 22.693 239.415 20.5875 239.6282 19.4148 239.7348 17.3761 239.7348 14.4711ZM232.7391 14.4711C232.7391 18.229 232.3928 20.5608 231.6997 21.4671 231.0602 22.2931 230.1273 22.7064 228.9013 22.7064 227.6756 22.7064 226.7427 22.2931 226.1032 21.4671 225.4102 20.5608 225.0638 18.229 225.0638 14.4711 225.0638 10.7402 225.3969 8.4348 226.063 7.5555 226.7294 6.6759 227.6756 6.2362 228.9013 6.2362 230.1273 6.2362 231.0735 6.6759 231.7397 7.5555 232.4061 8.4348 232.7391 10.7402 232.7391 14.4711ZM267.0786 .2398H258.9633L253.9264 10.8334H251.5677V.2398H244.5721V28.7028H255.8452C258.8567 28.7028 261.2687 27.7566 263.0809 25.8644 264.7332 24.1588 265.5595 22.0533 265.5595 19.5483 265.5595 16.1368 264.0138 13.6585 260.9223 12.1127ZM258.5636 19.5483C258.5636 20.321 258.2838 20.994 257.724 21.5668 257.1644 22.14 256.4317 22.4263 255.5254 22.4263H251.5677V16.67H255.5254C256.4317 16.67 257.1644 16.9563 257.724 17.5294 258.2838 18.1023 258.5636 18.7753 258.5636 19.5483ZM289.9446 22.4663H282.9489V.2398H275.953V22.4663H268.9574V28.7028H289.9446ZM313.3704 .2398H294.0222V28.7028H313.3704V22.4663H301.0178V17.7092H311.5715V11.4729H301.0178V6.476H313.3704ZM346.3506 8.968C346.3506 6.1696 345.2715 3.9509 343.1126 2.3253 341.0872 .7727 338.502 0 335.3573 0 330.5869 0 326.9891 1.2526 324.5638 3.7576L329.0411 8.2349C330.3737 6.9024 332.4923 6.2362 335.3973 6.2362 338.1157 6.2362 339.4749 7.0889 339.4749 8.7948 339.4749 10.1803 338.6619 10.9933 337.0363 11.2331L333.5984 11.7128C328.4816 12.4325 325.923 15.1775 325.923 19.948 325.923 22.5865 326.8624 24.745 328.7412 26.424 330.6203 28.103 333.1454 28.9426 336.3168 28.9426 340.4475 28.9426 343.6458 27.8099 345.911 25.5444L341.5136 21.1473C340.3942 22.2931 338.5953 22.8662 336.117 22.8662 334.9976 22.8662 334.118 22.5865 333.4785 22.0266 332.9456 21.5203 332.6788 20.9205 332.6788 20.2209 332.6788 19.7147 332.879 19.2617 333.2786 18.862 333.6783 18.462 334.3181 18.1956 335.1974 18.0624L338.6353 17.5827C341.2471 17.2097 343.186 16.3366 344.452 14.9777 345.7176 13.6185 346.3506 11.613 346.3506 8.968ZM358.3834 4.3174C358.3834 3.1714 357.9769 2.1852 357.1639 1.3592 356.3512 .5329 355.3586 .1199 354.1859 .1199 353.0398 .1199 352.0539 .5329 351.2276 1.3592 350.4016 2.1852 349.9883 3.1714 349.9883 4.3174 349.9883 5.4899 350.4016 6.4828 351.2276 7.2955 352.0539 8.1085 353.0398 8.5147 354.1859 8.5147 355.3586 8.5147 356.3512 8.1085 357.1639 7.2955 357.9769 6.4828 358.3834 5.4899 358.3834 4.3174ZM386.4464 .2398H379.1307L377.8115 4.4773H369.057L367.6578 .2398H360.3421L370.696 28.7028H376.0926ZM375.9727 10.3139 373.5743 17.909 371.0157 10.3139ZM396.8002 4.3174C396.8002 3.1714 396.3937 2.1852 395.5808 1.3592 394.7681 .5329 393.7754 .1199 392.6027 .1199 391.4566 .1199 390.4707 .5329 389.6444 1.3592 388.8184 2.1852 388.4051 3.1714 388.4051 4.3174 388.4051 5.4899 388.8184 6.4828 389.6444 7.2955 390.4707 8.1085 391.4566 8.5147 392.6027 8.5147 393.7754 8.5147 394.7681 8.1085 395.5808 7.2955 396.3937 6.4828 396.8002 5.4899 396.8002 4.3174ZM420.7856 8.968C420.7856 6.1696 419.7064 3.9509 417.5476 2.3253 415.5222 .7727 412.937 0 409.7923 0 405.0218 0 401.4241 1.2526 398.9988 3.7576L403.4761 8.2349C404.8087 6.9024 406.9273 6.2362 409.8322 6.2362 412.5506 6.2362 413.9099 7.0889 413.9099 8.7948 413.9099 10.1803 413.0969 10.9933 411.4712 11.2331L408.0334 11.7128C402.9165 12.4325 400.358 15.1775 400.358 19.948 400.358 22.5865 401.2974 24.745 403.1762 26.424 405.0553 28.103 407.5804 28.9426 410.7518 28.9426 414.8824 28.9426 418.0808 27.8099 420.3459 25.5444L415.9485 21.1473C414.8291 22.2931 413.0303 22.8662 410.5519 22.8662 409.4325 22.8662 408.5529 22.5865 407.9134 22.0266 407.3805 21.5203 407.1138 20.9205 407.1138 20.2209 407.1138 19.7147 407.3139 19.2617 407.7136 18.862 408.1133 18.462 408.7531 18.1956 409.6324 18.0624L413.0702 17.5827C415.6821 17.2097 417.621 16.3366 418.8869 14.9777 420.1526 13.6185 420.7856 11.613 420.7856 8.968" 
        fill="#231f20" 
        fill-rule="evenodd"/>
</svg>