<?xml version="1.0" encoding="UTF-8"?>
<svg xmlns="http://www.w3.org/2000/svg" xmlns:xlink="http://www.w3.org/1999/xlink" 
     version="1.1" width="424.3779" height="184.0245" 
     viewBox="0 0 424.3779 184.0245">
  <path transform="matrix(1,0,0,-1,-15.0137,406.3792)" d="M171.6287 399.9416C181.7745 399.9416 190.76 397.5338 198.5837 392.7192 206.4073 387.9043 212.5125 381.0682 216.8977 372.2128 221.2818 363.3576 223.4752 353.0829 223.4752 341.3891V267.1036C223.4752 264.1802 222.5724 261.8167 220.7667 260.011 218.9611 258.2053 216.5961 257.3025 213.6728 257.3025 210.7497 257.3025 208.3416 258.2053 206.4504 260.011 204.5588 261.8167 203.6129 264.1802 203.6129 267.1036V341.3891C203.6129 353.5982 200.4752 363.2717 194.1982 370.4071 187.9226 377.5439 179.7114 381.1124 169.5657 381.1124 158.7328 381.1124 149.9621 377.5011 143.2559 370.2784 136.5497 363.0557 133.2833 353.5982 133.4548 341.9056V341.3891 267.1036C133.4548 264.1802 132.552 261.8167 130.7463 260.011 128.9409 258.2053 126.5771 257.3025 123.6538 257.3025 120.7295 257.3025 118.3226 258.2053 116.4314 260.011 114.5398 261.8167 113.5939 264.1802 113.5939 267.1036V341.3891C113.5939 353.5982 110.4562 363.2717 104.1792 370.4071 97.9024 377.5439 89.6913 381.1124 79.5467 381.1124 68.8844 381.1124 60.1149 377.587 53.2369 370.5361 46.3578 363.4863 42.9197 354.458 42.9197 343.4536V267.1036C42.9197 264.1802 42.0168 261.8167 40.2111 260.011 38.4055 258.2053 36.0405 257.3025 33.1172 257.3025 30.1941 257.3025 27.7875 258.2053 25.8959 260.011 24.0043 261.8167 23.0587 264.1802 23.0587 267.1036V388.3337C23.0587 391.2568 24.0043 393.6648 25.8959 395.5564 27.7875 397.4479 30.1941 398.3936 33.1172 398.3936 36.0405 398.3936 38.4055 397.4479 40.2111 395.5564 42.0168 393.6648 42.9197 391.2568 42.9197 388.3337V382.6593C47.7343 388.1619 53.4518 392.4184 60.0721 395.4274 66.6924 398.4367 73.872 399.9416 81.6097 399.9416 91.0675 399.9416 99.5794 397.7912 107.1454 393.493 114.7116 389.1937 120.7295 383.1755 125.2006 375.4366 130.1871 383.1755 136.6787 389.1937 144.6752 393.493 152.6706 397.7912 161.6562 399.9416 171.6287 399.9416ZM431.4243 226.5729H434.3916L427.4983 241.8435H424.7062L417.8341 226.5729H420.7575L422.2624 230.1066H429.8978ZM423.2225 232.3321 426.0801 239.0074 428.9593 232.3321ZM411.8318 226.5729 408.3194 231.5903C410.3921 232.3979 411.5704 234.0998 411.5704 236.4123 411.5704 239.7932 409.0827 241.8435 405.0694 241.8435H398.7853V226.5729H401.6217V231.0239H405.0694C405.265 231.0239 405.4618 231.0239 405.6574 231.0454L408.7774 226.5729ZM408.7117 236.4123C408.7117 234.4921 407.425 233.358 404.9382 233.358H401.6217V239.4439H404.9382C407.425 239.4439 408.7117 238.3311 408.7117 236.4123ZM381.744 228.9509V233.1609H389.118V235.495H381.744V239.4666H390.0566V241.8435H378.9077V226.5729H390.3619V228.9509ZM364.856 226.3547C367.3655 226.3547 369.5026 227.2493 370.9208 228.907L369.0887 230.6529C367.9761 229.4306 366.601 228.8412 365.0088 228.8412 361.8459 228.8412 359.555 231.0667 359.555 234.2081 359.555 237.3497 361.8459 239.5752 365.0088 239.5752 366.601 239.5752 367.9761 238.9859 369.0887 237.7862L370.9208 239.5094C369.5026 241.1671 367.3655 242.0617 364.8776 242.0617 360.1882 242.0617 356.6974 238.7676 356.6974 234.2081 356.6974 229.6488 360.1882 226.3547 364.856 226.3547ZM332.2434 241.8435H329.4505L324.9351 234.4051 320.4626 241.8435H317.4299L323.43 231.9182V226.5729H326.266V231.9613ZM282.9186 226.5729H293.7393V228.9725H285.7547V241.8435H282.9186ZM265.877 228.9509V233.1609H273.2511V235.495H265.877V239.4666H274.1896V241.8435H263.0409V226.5729H274.4949V228.9509ZM250.8211 226.5729H253.6571V241.8435H250.8211ZM241.448 226.5729 241.4268 241.8435H239.0927L233.1332 231.7215 227.0614 241.8435H224.7262V226.5729H227.4324V236.5648L232.4534 228.3177H233.7222L238.7432 236.6949 238.7648 226.5729ZM189.2548 228.9509V233.1609H196.6289V235.495H189.2548V239.4666H197.5674V241.8435H186.4188V226.5729H197.8727V228.9509ZM163.1384 226.5729H169.8148C174.7667 226.5729 178.1478 229.6273 178.1478 234.2081 178.1478 238.7903 174.7667 241.8435 169.8148 241.8435H163.1384ZM165.9745 228.9725V239.4439H169.6836C173.0874 239.4439 175.2902 237.3724 175.2902 234.2081 175.2902 231.0454 173.0874 228.9725 169.6836 228.9725ZM128.2133 226.3547C132.9469 226.3547 136.4377 229.6701 136.4377 234.2081 136.4377 238.746 132.9469 242.0617 128.2133 242.0617 123.4797 242.0617 119.9889 238.7248 119.9889 234.2081 119.9889 229.6928 123.4797 226.3547 128.2133 226.3547ZM128.2133 228.8412C125.1374 228.8412 122.8465 231.0883 122.8465 234.2081 122.8465 237.3282 125.1374 239.5752 128.2133 239.5752 131.2892 239.5752 133.5801 237.3282 133.5801 234.2081 133.5801 231.0883 131.2892 228.8412 128.2133 228.8412ZM108.8592 226.5729H111.6952V241.8435H108.8592ZM94.2625 241.8435H87.9786V226.5729H90.8147V230.9797H94.2625C98.2757 230.9797 100.7637 233.0527 100.7637 236.4123 100.7637 239.7932 98.2757 241.8435 94.2625 241.8435ZM94.1312 233.3792H90.8147V239.4439H94.1312C96.618 239.4439 97.905 238.3311 97.905 236.4123 97.905 234.4921 96.618 233.3792 94.1312 233.3792ZM71.4832 226.3547C76.2168 226.3547 79.7077 229.6701 79.7077 234.2081 79.7077 238.746 76.2168 242.0617 71.4832 242.0617 66.7497 242.0617 63.2588 238.7248 63.2588 234.2081 63.2588 229.6928 66.7497 226.3547 71.4832 226.3547ZM71.4832 228.8412C68.4074 228.8412 66.1164 231.0883 66.1164 234.2081 66.1164 237.3282 68.4074 239.5752 71.4832 239.5752 74.5591 239.5752 76.8501 237.3282 76.8501 234.2081 76.8501 231.0883 74.5591 228.8412 71.4832 228.8412ZM50.6239 226.3547C53.1332 226.3547 55.2705 227.2493 56.6887 228.907L54.8566 230.6529C53.744 229.4306 52.3689 228.8412 50.7767 228.8412 47.6138 228.8412 45.3226 231.0667 45.3226 234.2081 45.3226 237.3497 47.6138 239.5752 50.7767 239.5752 52.3689 239.5752 53.744 238.9859 54.8566 237.7862L56.6887 239.5094C55.2705 241.1671 53.1332 242.0617 50.6455 242.0617 45.9561 242.0617 42.4653 238.7676 42.4653 234.2081 42.4653 229.6488 45.9561 226.3547 50.6239 226.3547ZM33.6039 226.5729H36.5712L29.6776 241.8435H26.8858L20.0137 226.5729H22.9368L24.442 230.1066H32.0774ZM25.4021 232.3321 28.2597 239.0074 31.1386 232.3321ZM299.3757 380.0616C305.6632 378.5624 310.682 375.4009 315.0743 370.4071 321.3499 363.2717 324.489 353.5982 324.489 341.3891V267.1036C324.489 264.1802 325.4349 261.8167 327.3262 260.011 329.2177 258.2053 331.6246 257.3025 334.5489 257.3025 337.4719 257.3025 339.8357 258.2053 341.6414 260.011 343.4471 261.8167 344.3499 264.1802 344.3499 267.1036V341.3891 341.9056C344.1781 353.5982 347.4448 363.0557 354.151 370.2784 360.8572 377.5011 369.6279 381.1124 380.4605 381.1124 390.6062 381.1124 398.8176 377.5439 405.0933 370.4071 411.37 363.2717 414.508 353.5982 414.508 341.3891V267.1036C414.508 264.1802 415.4536 261.8167 417.3452 260.011 419.2367 258.2053 421.6448 257.3025 424.5678 257.3025 427.4909 257.3025 429.8559 258.2053 431.6615 260.011 433.4672 261.8167 434.37 264.1802 434.37 267.1036V341.3891C434.37 353.0829 432.1769 363.3576 427.7928 372.2128 423.4073 381.0682 417.3024 387.9043 409.4787 392.7192 401.6548 397.5338 392.6696 399.9416 382.5238 399.9416 372.551 399.9416 363.5657 397.7912 355.5703 393.493 347.5738 389.1937 341.0821 383.1755 336.0957 375.4366 331.6246 383.1755 325.6064 389.1937 318.0404 393.493 312.4565 396.6656 306.356 398.668 299.7417 399.4991 304.2856 394.0727 304.3287 385.1935 299.3757 380.0616ZM287.6783 399.7412C281.6065 399.2763 276.3113 397.857 270.9672 395.4274 264.348 392.4198 258.6294 388.1619 253.8145 382.6593V388.3337C253.8145 391.2568 252.9116 393.6648 251.1062 395.5564 249.3006 397.4479 246.9353 398.3936 244.0123 398.3936 241.0892 398.3936 238.6826 397.4479 236.791 395.5564 234.8994 393.6648 233.9535 391.2568 233.9535 388.3337V267.1036C233.9535 264.1802 234.8994 261.8167 236.791 260.011 238.6826 258.2053 241.0892 257.3025 244.0123 257.3025 246.9353 257.3025 249.3006 258.2053 251.1062 260.011 252.9116 261.8167 253.8145 264.1802 253.8145 267.1036V343.4536C253.8145 354.458 257.254 363.4863 264.132 370.5361 271.01 377.5856 279.2857 381.1099 289.948 381.1099 292.6171 381.1099 292.9414 380.3777 294.5358 382.9215 297.9315 388.3408 297.3923 394.6535 292.7387 398.8409 291.0285 400.3792 289.9049 399.9107 287.6783 399.7412" 
        fill="#231f20" 
        fill-rule="evenodd"/>
</svg>