<?xml version="1.0" encoding="UTF-8"?>
<svg xmlns="http://www.w3.org/2000/svg" xmlns:xlink="http://www.w3.org/1999/xlink" 
     version="1.1" width="394.7828" height="224.1992" 
     viewBox="0 0 394.7828 224.1992">
  <path transform="matrix(1,0,0,-1,-29.8111,717.6191)" d="M299.2286 520.3145C300.9934 520.4727 302.5417 521.1043 304.2119 522.3713H294.5149C294.5826 522.2137 294.6543 522.0575 294.7433 521.913 295.518 520.6966 297.106 520.128 299.2286 520.3145ZM130.9561 578.2365V636.7649H118.444V613.2963H93.0572V636.7649H80.545V578.2365H93.0572V602.7035H118.444V578.2365ZM42.594 626.5437 83.0945 696.6944C87.1342 703.6892 94.6616 708.0347 102.7386 708.0347H351.6656C359.7435 708.0347 367.27 703.6892 371.3105 696.6944L411.8111 626.5437C415.8485 619.5487 415.8485 610.8574 411.8111 603.862L371.3105 533.7122C367.27 526.7169 361.4479 522.3713 354.2757 522.3713H351.4156C351.258 521.07 350.879 519.8613 350.2913 518.7869H351.6656C361.0208 518.7869 369.7384 523.8196 374.4156 531.9213L414.9167 602.0688C419.5939 610.1697 419.5939 620.2363 414.9167 628.3372L374.4156 698.4879C369.7384 706.5865 361.0208 711.6191 351.6656 711.6191H102.7386C93.3843 711.6191 84.6666 706.5865 79.9889 698.4879L39.4911 628.3372C34.8111 620.2363 34.8111 610.1697 39.4911 602.0688L79.9889 531.9213C84.6666 523.8196 93.3843 518.7869 102.7386 518.7869H288.6894C288.1602 519.7405 287.7837 520.7907 287.5912 521.9337 287.5674 522.0763 287.5652 522.2265 287.5442 522.3713H101.9279C95.3544 522.3713 87.1342 526.7169 83.0945 533.7122L42.594 603.862C38.5557 610.8574 38.5557 619.5487 42.594 626.5437ZM92.8497 661.9694C96.6129 660.1493 98.4957 658.3187 98.4957 656.483 98.4957 654.9262 97.9299 653.6886 96.7997 652.7724 95.6673 651.8534 94.1323 651.3922 92.1883 651.3922 90.5794 651.3922 89.1303 651.8035 87.8403 652.6247 86.5494 653.4468 85.6148 654.5741 85.0326 656.0036L80.4189 650.7836C81.4618 648.8583 83.0443 647.3809 85.1647 646.3568 87.2841 645.3323 89.8282 644.8209 92.7967 644.8209 96.9843 644.8209 100.3212 645.9012 102.8021 648.0663 105.2858 650.2306 106.5257 653.133 106.5257 656.7727 106.5257 659.1929 105.736 661.3503 104.1534 663.2413 102.5728 665.1326 100.1398 666.8286 96.8528 668.3292 96.4287 668.524 95.8201 668.7904 95.0253 669.1252 91.0295 670.8212 89.0334 672.6934 89.0334 674.7452 89.0334 676.0517 89.5363 677.1155 90.5451 677.9373 91.5506 678.7587 92.8757 679.1698 94.519 679.1698 95.8808 679.1698 97.0424 678.8931 98.0062 678.3347 98.9677 677.7791 99.7418 676.9341 100.3235 675.8036L105.2274 680.4944C103.9187 682.2456 102.4155 683.5311 100.7087 684.3526 99.0043 685.1744 96.9766 685.5851 94.6273 685.5851 90.5794 685.5851 87.2872 684.5556 84.7534 682.4959 82.2172 680.4391 80.9504 677.8106 80.9504 674.6108 80.9504 672.2802 81.6038 670.2681 82.91 668.5824 84.2187 666.8943 86.5681 665.166 89.9606 663.3989 90.669 663.0279 91.6296 662.5508 92.8497 661.9694ZM113.1523 673.0333C112.1281 670.5867 111.6145 667.9687 111.6145 665.1774 111.6145 662.0664 112.2644 659.1594 113.5636 656.4566 114.8618 653.7521 116.7318 651.4294 119.1702 649.4854 121.0589 647.9841 123.1396 646.8307 125.4121 646.0254 127.6824 645.222 129.9997 644.8209 132.3677 644.8209 135.0726 644.8209 137.6878 645.3323 140.2132 646.3568 142.742 647.3809 145.0123 648.8583 147.0271 650.7836 148.9703 652.6568 150.4582 654.8295 151.4906 657.305 152.526 659.7782 153.042 662.4009 153.042 665.1774 153.042 667.95 152.5286 670.5652 151.5042 673.0197 150.4791 675.4774 148.9861 677.6603 147.0271 679.5669 145.0644 681.4582 142.8077 682.9251 140.2529 683.968 137.7011 685.0108 135.0726 685.5327 132.3677 685.5327 129.6473 685.5327 127.0029 685.0108 124.4296 683.968 121.8594 682.9251 119.6025 681.4582 117.6585 679.5669 115.6779 677.6603 114.1773 675.4827 113.1523 673.0333ZM123.6226 674.4668C125.9376 676.9661 128.8531 678.2173 132.3686 678.2173 135.8317 678.2173 138.721 676.9607 141.0361 674.4509 143.3511 671.944 144.5074 668.8519 144.5074 665.1751 144.5074 661.4649 143.3645 658.3776 141.0755 655.9126 138.7874 653.4473 135.8847 652.2148 132.3686 652.2148 128.7822 652.2148 125.8481 653.4369 123.5696 655.8863 121.2888 658.3329 120.1513 661.4303 120.1513 665.1751 120.1513 668.8675 121.3075 671.9649 123.6226 674.4668ZM159.8788 684.6557V660.5099C159.8788 655.2451 161.2667 651.3131 164.0404 648.7166 166.8161 646.1201 171.0377 644.8209 176.7107 644.8209 182.2944 644.8209 186.4743 646.1201 189.2469 648.7166 192.0203 651.3131 193.4082 655.2451 193.4082 660.5099V684.6557H185.1647V661.8087C185.1647 658.6299 184.4405 656.2253 182.9923 654.5999 181.544 652.9748 179.4053 652.161 176.5794 652.161 173.7694 652.161 171.6565 652.9697 170.2426 654.5866 168.8309 656.2037 168.1226 658.6115 168.1226 661.8087V684.6557ZM198.6834 684.6557V677.605H208.173V645.8536H216.4955V677.605H225.9842V684.6557ZM264.8392 645.8536V684.6557H256.5428V669.0983H239.7141V684.6557H231.4151V645.8536H239.7141V662.0746H256.5428V645.8536ZM296.3273 662.6302V669.6805H281.7763V677.6603H296.3273V684.6557H273.4798V645.8536H296.3273V652.9039H281.7763V662.6302ZM328.0521 666.8175C329.6619 668.7085 330.465 670.9893 330.465 673.6575 330.465 677.3312 329.29 680.0837 326.9412 681.9143 324.589 683.7418 321.0548 684.6557 316.338 684.6557H304.4628V645.8536H312.7612V663.9843L322.9645 645.8536H332.5323L321.8238 663.5072C324.3679 663.823 326.4457 664.9294 328.0521 666.8175ZM322.2746 673.0475C322.2746 671.2274 321.7371 669.9498 320.6577 669.2176 319.5802 668.4829 317.3624 668.1172 314.005 668.1172H312.7589V678.3228H314.005C317.2048 678.3228 319.3824 677.9194 320.5389 677.1161 321.6951 676.313 322.2746 674.9563 322.2746 673.0475ZM348.1971 668.8585 365.8479 645.8536H373.9861V684.6557H366.0616V662.9488C366.0616 661.2525 366.1041 659.8386 366.1937 658.7084 366.2833 657.5788 366.4227 656.4382 366.6178 655.2899 365.9803 656.8622 365.3663 658.2268 364.7735 659.3854 364.1839 660.5419 363.6388 661.4399 363.1462 662.0746L345.9694 684.6557H337.3571V645.8536H345.282V668.0103C345.282 669.7437 345.2372 671.1789 345.1476 672.3196 345.0609 673.4574 344.9183 674.5847 344.7235 675.6985 345.3797 674.0898 345.9954 672.7071 346.5802 671.5505 347.1625 670.392 347.7022 669.4963 348.1971 668.8585ZM321.6892 636.7649 341.5187 604.9423V578.2365H354.0308V604.9423L373.86 636.7649H359.2089L350.5944 620.8126C350.0067 619.6674 349.4798 618.4953 349.014 617.294 348.548 616.0958 348.1294 614.8157 347.7552 613.4567 347.2758 615.0552 346.8093 616.47 346.356 617.6942 345.9039 618.9216 345.4634 619.933 345.037 620.7333L336.3613 636.7649ZM295.2658 626.2095H317.2122V636.7649H282.7505V578.2365H317.2122V588.8713H295.2658V603.544H317.2122V614.1756H295.2658ZM269.7197 578.2365V636.7649H257.7648V604.0233C257.7648 601.4633 257.8306 599.3328 257.9649 597.6261 258.0993 595.9196 258.3099 594.2024 258.6047 592.4687 257.6463 594.8422 256.7191 596.899 255.8268 598.6451 254.9339 600.3913 254.1149 601.7448 253.3691 602.7035L227.4616 636.7649H214.4699V578.2365H226.4238V611.6584C226.4238 614.2706 226.3558 616.4357 226.2237 618.1557 226.0894 619.8727 225.8768 621.574 225.5839 623.2516 226.5687 620.826 227.501 618.7402 228.3812 616.9963 229.2608 615.2508 230.0746 613.8964 230.8195 612.938L257.4462 578.2365ZM201.5963 619.2142C200.0503 622.9171 197.7987 626.2095 194.8408 629.0872 191.8837 631.94 188.4779 634.1519 184.6281 635.7243 180.7744 637.2972 176.8107 638.0841 172.734 638.0841 168.628 638.0841 164.6382 637.2972 160.7584 635.7243 156.8815 634.1519 153.4765 631.94 150.5455 629.0872 147.5617 626.2095 145.2934 622.9244 143.7506 619.2351 142.2043 615.5425 141.4301 611.5918 141.4301 607.3812 141.4301 602.6907 142.4098 598.3055 144.3694 594.2285 146.3289 590.1517 149.1466 586.6458 152.8231 583.7148 155.6759 581.4499 158.8153 579.7089 162.239 578.497 165.6626 577.2832 169.1603 576.6778 172.734 576.6778 176.8107 576.6778 180.7534 577.4519 184.5669 578.9979 188.3781 580.5411 191.8015 582.7669 194.8408 585.6746 197.7727 588.4971 200.0191 591.7762 201.5776 595.5083 203.1372 599.2379 203.9168 603.1962 203.9168 607.3812 203.9168 611.5657 203.1426 615.5084 201.5963 619.2142ZM185.8068 621.3739C189.2971 617.5891 191.0432 612.9244 191.0432 607.3807 191.0432 601.7845 189.3178 597.128 185.8652 593.4095 182.4151 589.6902 178.0373 587.8312 172.7331 587.8312 167.3237 587.8312 162.8997 589.6774 159.4596 593.3701 156.0229 597.0594 154.3031 601.7315 154.3031 607.3807 154.3031 612.9513 156.0492 617.6203 159.5415 621.392 163.031 625.1635 167.4298 627.0491 172.7331 627.0491 177.9559 627.0491 182.3151 625.1584 185.8068 621.3739ZM100.7056 566.9515C99.7285 568.4292 98.4957 569.5347 97.0078 570.2672 95.5225 571.0017 93.7687 571.3682 91.7456 571.3682 90.2211 571.3682 88.8301 571.1391 87.5738 570.6777 86.3181 570.2173 85.2146 569.5376 84.2664 568.6367 83.1342 567.5624 82.2861 566.3163 81.7277 564.9024 81.1661 563.4884 80.8846 561.905 80.8846 560.1484 80.8846 558.0207 81.3557 556.1192 82.2934 554.4471 83.234 552.7718 84.5666 551.4599 86.2943 550.5117 87.0497 550.1086 87.8769 549.8011 88.7749 549.5899 89.6709 549.3793 90.6137 549.2741 91.6007 549.2741 94.8535 549.2741 97.4163 550.2325 99.2968 552.1499 101.1767 554.0698 102.1173 556.6881 102.1173 560.0066V560.7096H93.4291V558.4657H99.4416C99.2866 556.414 98.5093 554.747 97.1028 553.4666 95.6993 552.187 93.9396 551.5472 91.8298 551.5472 89.4334 551.5472 87.461 552.3528 85.9119 553.9646 84.3636 555.5741 83.5894 557.6363 83.5894 560.1484 83.5894 562.8135 84.3503 564.9735 85.8756 566.6224 87.4006 568.2708 89.3863 569.0951 91.8298 569.0951 93.3262 569.0951 94.6406 568.7765 95.7725 568.1395 96.9049 567.502 97.848 566.5456 98.6063 565.2711ZM106.5631 570.8942V549.8354H109.0097V559.8746H109.368L117.0499 549.8354H120.2287L112.1885 559.8746H112.6335C114.493 559.8746 115.9047 560.3253 116.8688 561.2204 117.8325 562.1162 118.3147 563.4272 118.3147 565.1555 118.3147 566.1507 118.1429 567.0624 117.798 567.8813 117.453 568.7002 116.9685 569.3556 116.3446 569.8431 115.8466 570.2275 115.2672 570.4985 114.6118 570.6567 113.9533 570.8151 112.9207 570.8942 111.5113 570.8942ZM110.9214 568.7793C112.8387 568.7793 114.1398 568.5075 114.8193 567.9677 115.5016 567.4249 115.8412 566.477 115.8412 565.1257 115.8412 563.87 115.5098 562.9898 114.8482 562.4872 114.1877 561.9841 112.8781 561.7312 110.9214 561.7312H109.0097V568.7793ZM129.0546 570.5328C127.6719 569.9775 126.453 569.1878 125.3965 568.1602 124.3222 567.1145 123.5055 565.9245 122.9448 564.5866 122.3833 563.2489 122.1021 561.8265 122.1021 560.3224 122.1021 558.8263 122.3833 557.4121 122.9448 556.0767 123.5055 554.7441 124.3222 553.5561 125.3965 552.5113 126.4632 551.4758 127.6824 550.6775 129.0597 550.1169 130.4374 549.5562 131.8697 549.2741 133.3576 549.2741 134.8432 549.2741 136.2813 549.5562 137.6688 550.1169 139.0547 550.6775 140.2821 551.4758 141.3459 552.5113 142.4098 553.5456 143.2213 554.7314 143.7795 556.0639 144.3351 557.3965 144.612 558.8158 144.612 560.3224 144.612 561.837 144.3351 563.2645 143.7795 564.6025 143.2213 565.9401 142.4098 567.1247 141.3459 568.1602 140.2894 569.1878 139.0683 569.9775 137.6824 570.5328 136.2946 571.0915 134.8537 571.3682 133.3576 571.3682 131.8697 571.3682 130.4348 571.0915 129.0546 570.5328ZM127.2532 566.5068C128.0594 567.3308 128.9866 567.9604 130.0317 568.3924 131.0777 568.8241 132.1863 569.0375 133.3585 569.0375 134.5192 569.0375 135.6205 568.8241 136.6611 568.3924 137.7043 567.9604 138.6357 567.3308 139.4606 566.5068 140.2767 565.6929 140.904 564.7524 141.3405 563.6886 141.7757 562.6247 141.9939 561.5028 141.9939 560.323 141.9939 559.1509 141.7782 558.0445 141.3459 556.9985 140.9142 555.9534 140.2872 555.0188 139.4606 554.1939 138.6255 553.3594 137.6878 552.7247 136.6478 552.2871 135.6049 551.8528 134.5088 551.634 133.3585 551.634 132.1968 551.634 131.0987 551.8505 130.0691 552.282 129.0365 552.7111 128.0988 553.3509 127.2532 554.1939 126.4184 555.0367 125.7863 555.9775 125.3599 557.0121 124.9328 558.0499 124.7202 559.1509 124.7202 560.323 124.7202 561.5028 124.9359 562.6193 125.3673 563.6727 125.7996 564.7283 126.4289 565.6714 127.2532 566.5068ZM149.3473 570.8942V557.7885C149.3473 554.942 150.0267 552.8112 151.3826 551.3973 152.7389 549.9825 154.7802 549.2741 157.5034 549.2741 160.2374 549.2741 162.2806 549.9825 163.6401 551.3973 164.9968 552.8112 165.6731 554.942 165.6731 557.7885V570.8942H163.1265V557.7885C163.1265 555.6609 162.6763 554.099 161.7701 553.1009 160.8613 552.1028 159.4414 551.6048 157.5034 551.6048 155.5676 551.6048 154.1455 552.1028 153.2401 553.1009 152.3336 554.099 151.878 555.6609 151.878 557.7885V570.8942ZM171.3878 570.8942V549.8354H173.8321V559.2847H175.0992 175.8053C177.3587 559.2847 178.4965 559.3666 179.2208 559.5293 179.9447 559.6929 180.5743 559.967 181.1117 560.3513 181.7836 560.8307 182.3077 561.486 182.687 562.3214 183.0662 563.1562 183.2559 564.0803 183.2559 565.0974 183.2559 566.1142 183.0662 567.0383 182.687 567.8731 182.3077 568.7084 181.7836 569.3638 181.1117 569.8431 180.5743 570.2173 179.9427 570.4858 179.2131 570.6493 178.4832 570.812 177.3482 570.8942 175.8053 570.8942ZM175.098 568.6061C177.2082 568.6061 178.6436 568.3351 179.4073 567.7872 180.1681 567.2392 180.5502 566.2962 180.5502 564.9531 180.5502 563.6968 180.1791 562.8172 179.4365 562.314 178.6938 561.8109 177.2476 561.5586 175.098 561.5586H173.8321V568.6061ZM197.4725 569.9296C196.3579 568.9534 195.8023 567.7155 195.8023 566.2193 195.8023 564.9338 196.1473 563.8303 196.8318 562.9113 197.5173 561.9892 198.5601 561.236 199.9607 560.6515L202.5207 559.5585C203.6137 559.0794 204.4304 558.4918 204.9732 557.7968 205.5152 557.1017 205.7868 556.285 205.7868 555.3451 205.7868 554.1834 205.3973 553.2426 204.62 552.5186 203.8428 551.7944 202.8268 551.431 201.5725 551.431 200.5064 551.431 199.6211 551.7601 198.9179 552.4186 198.2123 553.0748 197.7069 554.0409 197.4008 555.3159L195.1282 554.1939C195.5211 552.6298 196.2794 551.4256 197.4008 550.5755 198.523 549.7271 199.9137 549.3033 201.5725 549.3033 203.6032 549.3033 205.236 549.896 206.4685 551.0806 207.701 552.2632 208.3175 553.8251 208.3175 555.7609 208.3175 557.0861 207.9697 558.2313 207.2747 559.2002 206.5796 560.1671 205.5472 560.9443 204.175 561.5286L201.1703 562.8532C200.2003 563.275 199.4845 563.7594 199.0261 564.3074 198.5652 564.8525 198.3362 565.5005 198.3362 566.2485 198.3362 567.1414 198.6333 567.8731 199.2345 568.4499 199.8315 569.0242 200.6036 569.3108 201.5442 569.3108 202.2809 569.3108 202.9425 569.1138 203.527 568.7158 204.1115 568.3156 204.641 567.7101 205.1096 566.8965L207.18 568.2178C206.6641 569.2637 205.9421 570.0535 205.0177 570.5912 204.0905 571.1287 202.9946 571.3965 201.7278 571.3965 200.0032 571.3965 198.5834 570.907 197.4725 569.9296ZM227.9574 571.729 218.4075 549.8354H221.1256L223.8588 556.2933H232.0863L234.8172 549.8354H237.5385ZM231.3085 558.4371H224.606L227.9588 566.191ZM249.4244 554.1939C249.8193 552.6298 250.5747 551.4256 251.697 550.5755 252.8189 549.7271 254.2099 549.3033 255.8687 549.3033 257.9014 549.3033 259.5351 549.896 260.7676 551.0806 262.0001 552.2632 262.616 553.8251 262.616 555.7609 262.616 557.0861 262.2691 558.2313 261.5732 559.2002 260.8781 560.1671 259.8426 560.9443 258.4735 561.5286L255.4656 562.8532C254.4965 563.275 253.7827 563.7594 253.3221 564.3074 252.8637 564.8525 252.6316 565.5005 252.6316 566.2485 252.6316 567.1414 252.9323 567.8731 253.5327 568.4499 254.1305 569.0242 254.8996 569.3108 255.8395 569.3108 256.5802 569.3108 257.2407 569.1138 257.8255 568.7158 258.41 568.3156 258.9369 567.7101 259.4081 566.8965L261.4782 568.2178C260.9623 569.2637 260.238 570.0535 259.3134 570.5912 258.389 571.1287 257.2937 571.3965 256.0269 571.3965 254.3017 571.3965 252.8824 570.907 251.771 569.9296 250.6569 568.9534 250.1008 567.7155 250.1008 566.2193 250.1008 564.9338 250.4435 563.8303 251.1309 562.9113 251.8157 561.9892 252.8586 561.236 254.2569 560.6515L256.8197 559.5585C257.9128 559.0794 258.7286 558.4918 259.2714 557.7968 259.8143 557.1017 260.0821 556.285 260.0821 555.3451 260.0821 554.1834 259.6955 553.2426 258.9182 552.5186 258.1413 551.7944 257.125 551.431 255.8687 551.431 254.8049 551.431 253.9193 551.7601 253.2138 552.4186 252.5108 553.0748 252.0051 554.0409 251.697 555.3159ZM213.6719 552.956C213.2031 552.956 212.8 552.7902 212.4632 552.4529 212.1287 552.1184 211.9601 551.7153 211.9601 551.2442 211.9601 550.7753 212.1259 550.3805 212.455 550.0587 212.7872 549.7376 213.1929 549.5771 213.6719 549.5771 214.1617 549.5771 214.5725 549.7376 214.9098 550.0587 215.2443 550.3805 215.4129 550.7753 215.4129 551.2442 215.4129 551.7235 215.242 552.1289 214.9016 552.4611 214.562 552.7928 214.1512 552.956 213.6719 552.956ZM241.9707 552.4529C241.6363 552.1184 241.4676 551.7153 241.4676 551.2442 241.4676 550.7753 241.6334 550.3805 241.9625 550.0587 242.2947 549.7376 242.7001 549.5771 243.1794 549.5771 243.6693 549.5771 244.0806 549.7376 244.4173 550.0587 244.7518 550.3805 244.9205 550.7753 244.9205 551.2442 244.9205 551.7235 244.7495 552.1289 244.41 552.4611 244.0701 552.7928 243.6588 552.956 243.1794 552.956 242.7106 552.956 242.3075 552.7902 241.9707 552.4529ZM266.7617 552.4529C266.4241 552.1184 266.2563 551.7153 266.2563 551.2442 266.2563 550.7753 266.4221 550.3805 266.7535 550.0587 267.0854 549.7376 267.4888 549.5771 267.9701 549.5771 268.4577 549.5771 268.8715 549.7376 269.2057 550.0587 269.5425 550.3805 269.7083 550.7753 269.7083 551.2442 269.7083 551.7235 269.5402 552.1289 269.2006 552.4611 268.8579 552.7928 268.4494 552.956 267.9701 552.956 267.4993 552.956 267.0959 552.7902 266.7617 552.4529ZM310.6942 552.0132C307.7787 548.8529 306.9757 545.3235 308.2915 541.4284 308.3366 541.2889 308.2603 541.139 308.1206 541.1044 302.1579 539.4614 295.8534 536.7566 292.1131 531.9391 288.7634 527.6203 287.5277 520.3562 292.8424 516.9013 296.9464 514.2413 302.8374 515.1679 306.7381 518.0621 306.8515 518.1494 307.0171 518.057 307.0069 517.9122 306.6851 512.3503 308.5872 506.9772 312.8905 503.5901 314.3364 502.4554 316.2172 501.1095 317.2093 499.4974 317.9103 498.3732 319.0666 497.4199 320.4278 498.1493 321.5631 498.7681 322.4112 500.6563 323.3064 501.3573 325.3742 502.969 326.6748 504.0465 327.2071 504.5831 330.789 508.189 332.2426 512.8214 331.9843 517.8336 331.9685 518.0839 332.0663 518.1361 332.2687 517.9941 335.632 515.679 339.1481 514.8811 342.8303 515.5917 347.023 516.4004 349.7933 519.5455 349.7091 523.9069 349.5141 533.778 339.5013 538.7102 330.9287 541.0783 330.736 541.1285 330.6569 541.2546 330.6943 541.4494 330.8122 542.0662 331.0631 542.632 331.1549 543.259 331.6581 546.5775 330.6994 549.4793 328.2814 551.9713 328.1366 552.1215 328.1051 552.3506 328.2075 552.5351 329.8192 555.3524 332.2032 556.9016 335.3556 557.1831 336.4486 557.2809 337.428 558.3521 336.8863 559.5191 336.5175 560.317 335.8902 560.6776 335.0132 560.6014 330.7518 560.2275 327.5101 558.1706 325.2869 554.4312 325.1974 554.2804 325.0684 554.2387 324.9077 554.3073 321.1682 555.9191 317.5622 555.9191 314.0864 554.2968 313.9356 554.2251 313.7573 554.2804 313.6728 554.4252 311.5599 558.0947 308.3477 560.1566 304.0333 560.6067 303.1614 560.694 302.5057 560.3409 302.061 559.5429 301.987 559.4136 301.9504 559.2688 301.9504 559.1137 301.9445 557.9334 302.5244 557.2862 303.702 557.1675 306.8569 556.8463 309.2085 555.3077 310.7568 552.5456 310.8546 552.3738 310.8285 552.1581 310.6942 552.0132ZM299.8743 534.3885C304.3536 536.8516 309.6899 538.5946 315.8685 539.627 316.4896 539.7301 317.0302 539.5853 317.4803 539.1978 318.4807 538.3369 317.6617 536.0428 317.1481 535.0521 314.7911 530.5093 311.3019 526.6616 307.5406 522.9162 305.2151 520.602 302.7898 518.834 299.3868 518.5287 292.7551 517.9442 290.7505 523.5171 293.745 528.6498 295.1067 530.9867 297.1531 532.8984 299.8743 534.3885ZM310.7971 521.5799C310.8597 521.8801 311.0366 521.983 311.3317 521.8957 316.7963 520.1816 322.2244 520.187 327.6235 521.9011 327.8551 521.977 328.1 521.8322 328.155 521.5955L328.6689 519.2858C328.7375 518.9907 328.627 518.7878 328.3529 518.6803 322.6456 516.3571 316.6038 516.4101 310.5969 518.6324 310.3251 518.7302 310.2231 518.9221 310.2803 519.2065ZM323.1564 532.6855C322.3134 533.9659 319.7324 538.3981 321.7581 539.4098 322.2187 539.636 322.7063 539.7049 323.2199 539.6182 330.2493 538.3981 340.0381 535.7673 344.4474 529.8576 346.5094 527.097 348.0471 521.8645 344.3817 519.539 340.8415 517.2976 336.056 518.8093 333.0459 521.4716 329.0848 524.9721 325.7901 528.7116 323.1564 532.6855ZM319.6981 532.2983C321.1943 529.6516 323.0323 527.1678 325.2183 524.8423 325.3527 524.6974 325.2764 524.4661 325.0845 524.4236 321.3496 523.5993 317.605 523.5993 313.8491 524.4236 313.6513 524.4661 313.5804 524.7079 313.7199 524.8528 315.8266 527.044 317.6833 529.5249 319.2772 532.2983 319.4169 532.5409 319.5564 532.5409 319.6981 532.2983ZM310.4813 515.3117C316.5888 513.2761 322.5934 513.2761 328.4875 515.3221 328.7832 515.4253 328.9011 515.3221 328.8404 515.0169L328.2559 512.2196C328.1769 511.8619 327.9634 511.6195 327.6184 511.4985 321.967 509.6044 316.5284 509.6231 311.2897 511.5611 310.9898 511.6694 310.7656 511.9299 310.7052 512.2412L310.1363 515.0013C310.0677 515.3066 310.1865 515.4097 310.4813 515.3117ZM313.7766 507.5558C317.6056 506.7899 321.2005 506.766 324.5666 507.4744 325.7626 507.7276 325.8731 507.4798 324.904 506.74 322.8786 505.1857 321.122 503.6505 319.631 502.1388 319.4864 501.9888 319.3489 501.9993 319.2307 502.1649 317.7952 504.0822 315.3093 505.6628 313.5997 507.2162 313.2445 507.543 313.2995 507.6558 313.7766 507.5558ZM344.5421 522.3728H334.7734C337.2593 520.4526 340.8599 519.4307 343.4199 521.0527 343.9494 521.3903 344.3182 521.8248 344.5421 522.3728" 
        fill="#231f20" 
        fill-rule="evenodd"/>
</svg>